<?xml version="1.0" encoding="UTF-8"?>
<svg xmlns="http://www.w3.org/2000/svg" width="512" height="531" viewBox="0 0 512 531" fill="none">
  <g clip-path="url(#clip0_1080_3019)">
    <path d="M0 63.4219C0 28.0786 29.2548 0.0345241 64.6097 0.0345241H447.39C482.745 -1.18779 512 28.067 512 63.4219V290.161C512 429.136 397.414 530.312 255.994 530.312C114.575 530.312 0 429.136 0 290.173V63.4219Z" fill="#FD561F"></path>
    <path fill-rule="evenodd" clip-rule="evenodd" d="M161.258 146.648C161.258 166.954 177.719 183.416 198.025 183.416C218.331 183.416 234.792 166.954 234.792 146.648C234.792 126.342 218.331 109.88 198.025 109.88C177.719 109.88 161.258 126.341 161.258 146.648ZM198.025 163.607C188.659 163.607 181.067 156.014 181.067 146.648C181.067 137.282 188.659 129.689 198.025 129.689C207.39 129.689 214.983 137.281 214.983 146.648C214.983 156.014 207.39 163.607 198.025 163.607Z" fill="white"></path>
    <path fill-rule="evenodd" clip-rule="evenodd" d="M101 307.157C101 327.463 117.461 343.925 137.767 343.925C158.073 343.925 174.534 327.463 174.534 307.157C174.534 286.851 158.073 270.389 137.767 270.389C117.461 270.389 101 286.851 101 307.157ZM137.767 324.116C128.402 324.116 120.809 316.523 120.809 307.157C120.809 297.79 128.402 290.198 137.767 290.198C147.133 290.198 154.725 297.791 154.725 307.157C154.725 316.523 147.133 324.116 137.767 324.116Z" fill="white"></path>
    <path fill-rule="evenodd" clip-rule="evenodd" d="M219.233 307.157C219.233 327.463 235.694 343.925 255.999 343.925C276.306 343.925 292.767 327.463 292.767 307.157C292.767 286.851 276.306 270.389 255.999 270.389C235.694 270.389 219.233 286.851 219.233 307.157ZM255.999 324.116C246.635 324.116 239.042 316.523 239.042 307.157C239.042 297.79 246.635 290.198 255.999 290.198C265.366 290.198 272.958 297.791 272.958 307.157C272.958 316.523 265.366 324.116 255.999 324.116Z" fill="white"></path>
    <path fill-rule="evenodd" clip-rule="evenodd" d="M337.466 307.157C337.466 327.463 353.927 343.925 374.234 343.925C394.539 343.925 411 327.463 411 307.157C411 286.851 394.539 270.389 374.234 270.389C353.927 270.389 337.466 286.851 337.466 307.157ZM374.234 324.116C364.867 324.116 357.275 316.523 357.275 307.157C357.275 297.791 364.867 290.198 374.234 290.198C383.598 290.198 391.191 297.79 391.191 307.157C391.191 316.523 383.598 324.116 374.234 324.116Z" fill="white"></path>
    <path fill-rule="evenodd" clip-rule="evenodd" d="M277.208 146.648C277.208 166.954 293.669 183.416 313.975 183.416C334.281 183.416 350.742 166.954 350.742 146.648C350.742 126.341 334.281 109.88 313.975 109.88C293.669 109.88 277.208 126.342 277.208 146.648ZM313.975 163.607C304.61 163.607 297.017 156.014 297.017 146.648C297.017 137.281 304.61 129.689 313.975 129.689C323.341 129.689 330.933 137.282 330.933 146.648C330.933 156.014 323.341 163.607 313.975 163.607Z" fill="white"></path>
    <path fill-rule="evenodd" clip-rule="evenodd" d="M137.766 290.198C143.236 290.198 147.671 285.764 147.671 280.294V231.955C147.671 230.956 148.482 230.144 149.482 230.144H362.518C363.517 230.144 364.328 230.956 364.328 231.955V280.294C364.328 285.764 368.763 290.198 374.233 290.198C379.703 290.198 384.137 285.764 384.137 280.294V231.955C384.137 220.014 374.456 210.335 362.518 210.335H149.482C137.543 210.335 127.862 220.014 127.862 231.955V280.294C127.862 285.764 132.296 290.198 137.766 290.198Z" fill="white"></path>
    <path fill-rule="evenodd" clip-rule="evenodd" d="M256 290.198C261.47 290.198 265.905 285.764 265.905 280.294V220.24C265.905 214.77 261.47 210.335 256 210.335C250.53 210.335 246.096 214.77 246.096 220.24V280.294C246.096 285.764 250.53 290.198 256 290.198Z" fill="white"></path>
    <path fill-rule="evenodd" clip-rule="evenodd" d="M313.975 230.145C319.445 230.145 323.879 225.71 323.879 220.24V173.51C323.879 168.04 319.445 163.606 313.975 163.606C308.505 163.606 304.07 168.04 304.07 173.51V220.24C304.07 225.71 308.505 230.145 313.975 230.145Z" fill="white"></path>
    <path fill-rule="evenodd" clip-rule="evenodd" d="M198.025 230.145C203.495 230.145 207.93 225.711 207.93 220.241V173.511C207.93 168.041 203.495 163.606 198.025 163.606C192.555 163.606 188.121 168.041 188.121 173.511V220.241C188.121 225.711 192.555 230.145 198.025 230.145Z" fill="white"></path>
  </g>
  <defs>
    <clipPath id="clip0_1080_3019">
      <rect width="512" height="530.323" fill="white"></rect>
    </clipPath>
  </defs>
</svg>
